<mxfile host="app.diagrams.net" agent="Mozilla/5.0 (Windows NT 10.0; Win64; x64) AppleWebKit/537.36 (KHTML, like Gecko) Chrome/135.0.0.0 Safari/537.36" version="26.2.14">
  <diagram name="Page-1" id="K4R_wAEgrCEOFIBSe1Q1">
<<<<<<< HEAD
    <mxGraphModel dx="1601" dy="1801" grid="1" gridSize="10" guides="1" tooltips="1" connect="1" arrows="1" fold="1" page="1" pageScale="1" pageWidth="850" pageHeight="1100" math="0" shadow="0">
=======
    <mxGraphModel dx="1392" dy="3128" grid="1" gridSize="10" guides="1" tooltips="1" connect="1" arrows="1" fold="1" page="1" pageScale="1" pageWidth="850" pageHeight="1100" math="0" shadow="0">
>>>>>>> 305c2df77bcbca33457f7de318375c8cdc31b33d
      <root>
        <mxCell id="0" />
        <mxCell id="1" parent="0" />
        <mxCell id="eMn3P1zEDU3OZznFEJhk-1" value="" style="shape=umlLifeline;perimeter=lifelinePerimeter;whiteSpace=wrap;html=1;container=1;dropTarget=0;collapsible=0;recursiveResize=0;outlineConnect=0;portConstraint=eastwest;newEdgeStyle={&quot;curved&quot;:0,&quot;rounded&quot;:0};participant=umlActor;" parent="1" vertex="1">
          <mxGeometry x="170" y="30" width="20" height="100" as="geometry" />
        </mxCell>
        <mxCell id="eMn3P1zEDU3OZznFEJhk-2" value="" style="html=1;points=[[0,0,0,0,5],[0,1,0,0,-5],[1,0,0,0,5],[1,1,0,0,-5]];perimeter=orthogonalPerimeter;outlineConnect=0;targetShapes=umlLifeline;portConstraint=eastwest;newEdgeStyle={&quot;curved&quot;:0,&quot;rounded&quot;:0};" parent="1" vertex="1">
          <mxGeometry x="175" y="130" width="10" height="470" as="geometry" />
        </mxCell>
        <mxCell id="eMn3P1zEDU3OZznFEJhk-3" value="" style="html=1;points=[[0,0,0,0,5],[0,1,0,0,-5],[1,0,0,0,5],[1,1,0,0,-5]];perimeter=orthogonalPerimeter;outlineConnect=0;targetShapes=umlLifeline;portConstraint=eastwest;newEdgeStyle={&quot;curved&quot;:0,&quot;rounded&quot;:0};" parent="1" vertex="1">
          <mxGeometry x="370" y="130" width="10" height="460" as="geometry" />
        </mxCell>
        <mxCell id="eMn3P1zEDU3OZznFEJhk-4" value=":UI&amp;nbsp;" style="html=1;whiteSpace=wrap;" parent="1" vertex="1">
          <mxGeometry x="335" y="-10" width="80" height="50" as="geometry" />
        </mxCell>
        <mxCell id="eMn3P1zEDU3OZznFEJhk-5" value=":API&amp;nbsp;" style="html=1;whiteSpace=wrap;" parent="1" vertex="1">
          <mxGeometry x="550" y="-10" width="80" height="50" as="geometry" />
        </mxCell>
        <mxCell id="eMn3P1zEDU3OZznFEJhk-6" value=":Database" style="html=1;whiteSpace=wrap;" parent="1" vertex="1">
          <mxGeometry x="805" y="-10" width="80" height="50" as="geometry" />
        </mxCell>
        <mxCell id="eMn3P1zEDU3OZznFEJhk-9" value="Farmer" style="text;html=1;align=center;verticalAlign=middle;resizable=0;points=[];autosize=1;strokeColor=none;fillColor=none;" parent="1" vertex="1">
          <mxGeometry x="160" width="60" height="30" as="geometry" />
        </mxCell>
        <mxCell id="eMn3P1zEDU3OZznFEJhk-12" value="" style="endArrow=block;endFill=1;html=1;edgeStyle=orthogonalEdgeStyle;align=left;verticalAlign=top;rounded=0;" parent="1" source="eMn3P1zEDU3OZznFEJhk-2" target="eMn3P1zEDU3OZznFEJhk-3" edge="1">
          <mxGeometry x="-1" relative="1" as="geometry">
            <mxPoint x="190" y="150" as="sourcePoint" />
            <mxPoint x="310" y="150" as="targetPoint" />
            <Array as="points">
              <mxPoint x="250" y="140" />
              <mxPoint x="250" y="140" />
            </Array>
          </mxGeometry>
        </mxCell>
        <mxCell id="eMn3P1zEDU3OZznFEJhk-14" value="" style="html=1;points=[[0,0,0,0,5],[0,1,0,0,-5],[1,0,0,0,5],[1,1,0,0,-5]];perimeter=orthogonalPerimeter;outlineConnect=0;targetShapes=umlLifeline;portConstraint=eastwest;newEdgeStyle={&quot;curved&quot;:0,&quot;rounded&quot;:0};" parent="1" vertex="1">
          <mxGeometry x="585" y="140" width="10" height="440" as="geometry" />
        </mxCell>
        <mxCell id="eMn3P1zEDU3OZznFEJhk-15" value="" style="html=1;points=[[0,0,0,0,5],[0,1,0,0,-5],[1,0,0,0,5],[1,1,0,0,-5]];perimeter=orthogonalPerimeter;outlineConnect=0;targetShapes=umlLifeline;portConstraint=eastwest;newEdgeStyle={&quot;curved&quot;:0,&quot;rounded&quot;:0};" parent="1" vertex="1">
          <mxGeometry x="840" y="140" width="10" height="440" as="geometry" />
        </mxCell>
        <mxCell id="eMn3P1zEDU3OZznFEJhk-16" value="Clicks View Assignmet Button" style="text;html=1;align=center;verticalAlign=middle;resizable=0;points=[];autosize=1;strokeColor=none;fillColor=none;" parent="1" vertex="1">
          <mxGeometry x="175" y="110" width="180" height="30" as="geometry" />
        </mxCell>
        <mxCell id="eMn3P1zEDU3OZznFEJhk-17" value="" style="endArrow=block;endFill=1;html=1;edgeStyle=orthogonalEdgeStyle;align=left;verticalAlign=top;rounded=0;" parent="1" target="eMn3P1zEDU3OZznFEJhk-14" edge="1">
          <mxGeometry x="-1" relative="1" as="geometry">
            <mxPoint x="380" y="130" as="sourcePoint" />
            <mxPoint x="514.9999999999999" y="150.01639344262298" as="targetPoint" />
            <Array as="points">
              <mxPoint x="380" y="150" />
            </Array>
          </mxGeometry>
        </mxCell>
        <mxCell id="eMn3P1zEDU3OZznFEJhk-18" value="getAssignment(FarmerID)" style="text;html=1;align=center;verticalAlign=middle;resizable=0;points=[];autosize=1;strokeColor=none;fillColor=none;" parent="1" vertex="1">
          <mxGeometry x="390" y="128" width="160" height="30" as="geometry" />
        </mxCell>
        <mxCell id="eMn3P1zEDU3OZznFEJhk-19" value="" style="endArrow=block;endFill=1;html=1;edgeStyle=orthogonalEdgeStyle;align=left;verticalAlign=top;rounded=0;" parent="1" edge="1">
          <mxGeometry x="-1" relative="1" as="geometry">
            <mxPoint x="595" y="140" as="sourcePoint" />
            <mxPoint x="840" y="160.00000000000023" as="targetPoint" />
            <Array as="points">
              <mxPoint x="595" y="160" />
            </Array>
          </mxGeometry>
        </mxCell>
        <mxCell id="eMn3P1zEDU3OZznFEJhk-20" value="getAssignedAssignments()" style="text;html=1;align=center;verticalAlign=middle;resizable=0;points=[];autosize=1;strokeColor=none;fillColor=none;" parent="1" vertex="1">
          <mxGeometry x="635" y="130" width="170" height="30" as="geometry" />
        </mxCell>
        <mxCell id="eMn3P1zEDU3OZznFEJhk-23" value="" style="html=1;points=[[0,0,0,0,5],[0,1,0,0,-5],[1,0,0,0,5],[1,1,0,0,-5]];perimeter=orthogonalPerimeter;outlineConnect=0;targetShapes=umlLifeline;portConstraint=eastwest;newEdgeStyle={&quot;curved&quot;:0,&quot;rounded&quot;:0};" parent="1" vertex="1">
          <mxGeometry x="845" y="178" width="10" height="40" as="geometry" />
        </mxCell>
        <mxCell id="eMn3P1zEDU3OZznFEJhk-24" value="isAvailable()" style="html=1;align=left;spacingLeft=2;endArrow=block;rounded=0;edgeStyle=orthogonalEdgeStyle;curved=0;rounded=0;" parent="1" target="eMn3P1zEDU3OZznFEJhk-23" edge="1">
          <mxGeometry relative="1" as="geometry">
            <mxPoint x="850" y="158" as="sourcePoint" />
            <Array as="points">
              <mxPoint x="880" y="188" />
            </Array>
          </mxGeometry>
        </mxCell>
<<<<<<< HEAD
        <mxCell id="eMn3P1zEDU3OZznFEJhk-26" value="sd&amp;nbsp; View Assignments&amp;nbsp;" style="shape=umlFrame;whiteSpace=wrap;html=1;pointerEvents=0;width=150;height=40;" parent="1" vertex="1">
          <mxGeometry x="120" y="-60" width="930" height="690" as="geometry" />
=======
        <mxCell id="eMn3P1zEDU3OZznFEJhk-26" value="sd Framer&amp;nbsp; View Assignments&amp;nbsp;" style="shape=umlFrame;whiteSpace=wrap;html=1;pointerEvents=0;width=150;height=40;" vertex="1" parent="1">
          <mxGeometry x="120" y="-180" width="930" height="810" as="geometry" />
>>>>>>> 305c2df77bcbca33457f7de318375c8cdc31b33d
        </mxCell>
        <mxCell id="eMn3P1zEDU3OZznFEJhk-27" value="alt" style="shape=umlFrame;whiteSpace=wrap;html=1;pointerEvents=0;" parent="1" vertex="1">
          <mxGeometry x="300" y="210" width="635" height="250" as="geometry" />
        </mxCell>
        <mxCell id="eMn3P1zEDU3OZznFEJhk-28" value="[false]" style="text;html=1;align=center;verticalAlign=middle;resizable=0;points=[];autosize=1;strokeColor=none;fillColor=none;" parent="1" vertex="1">
          <mxGeometry x="290" y="308" width="60" height="30" as="geometry" />
        </mxCell>
        <mxCell id="eMn3P1zEDU3OZznFEJhk-29" value="messsage(&quot;Farmer chosen&lt;div&gt;&amp;nbsp;doesnt have assignments&quot;)&amp;nbsp;&lt;/div&gt;" style="text;html=1;align=center;verticalAlign=middle;resizable=0;points=[];autosize=1;strokeColor=none;fillColor=none;" parent="1" vertex="1">
          <mxGeometry x="400" y="270" width="170" height="40" as="geometry" />
        </mxCell>
        <mxCell id="eMn3P1zEDU3OZznFEJhk-30" value="" style="html=1;verticalAlign=bottom;endArrow=open;dashed=1;endSize=8;curved=0;rounded=0;" parent="1" edge="1">
          <mxGeometry relative="1" as="geometry">
            <mxPoint x="587.5" y="308" as="sourcePoint" />
            <mxPoint x="382.5" y="308" as="targetPoint" />
          </mxGeometry>
        </mxCell>
        <mxCell id="eMn3P1zEDU3OZznFEJhk-31" value="" style="html=1;verticalAlign=bottom;endArrow=open;dashed=1;endSize=8;curved=0;rounded=0;" parent="1" edge="1">
          <mxGeometry relative="1" as="geometry">
            <mxPoint x="840" y="284.75" as="sourcePoint" />
            <mxPoint x="595" y="284.75" as="targetPoint" />
          </mxGeometry>
        </mxCell>
        <mxCell id="eMn3P1zEDU3OZznFEJhk-32" value="return error" style="text;html=1;align=center;verticalAlign=middle;resizable=0;points=[];autosize=1;strokeColor=none;fillColor=none;" parent="1" vertex="1">
          <mxGeometry x="660" y="260" width="80" height="30" as="geometry" />
        </mxCell>
        <mxCell id="eMn3P1zEDU3OZznFEJhk-33" value="" style="html=1;points=[[0,0,0,0,5],[0,1,0,0,-5],[1,0,0,0,5],[1,1,0,0,-5]];perimeter=orthogonalPerimeter;outlineConnect=0;targetShapes=umlLifeline;portConstraint=eastwest;newEdgeStyle={&quot;curved&quot;:0,&quot;rounded&quot;:0};" parent="1" vertex="1">
          <mxGeometry x="375" y="340" width="10" height="40" as="geometry" />
        </mxCell>
        <mxCell id="eMn3P1zEDU3OZznFEJhk-34" value="DisplayError" style="html=1;align=left;spacingLeft=2;endArrow=block;rounded=0;edgeStyle=orthogonalEdgeStyle;curved=0;rounded=0;" parent="1" target="eMn3P1zEDU3OZznFEJhk-33" edge="1">
          <mxGeometry relative="1" as="geometry">
            <mxPoint x="380" y="320" as="sourcePoint" />
            <Array as="points">
              <mxPoint x="410" y="350" />
            </Array>
          </mxGeometry>
        </mxCell>
        <mxCell id="eMn3P1zEDU3OZznFEJhk-36" value="[true]" style="text;html=1;align=center;verticalAlign=middle;resizable=0;points=[];autosize=1;strokeColor=none;fillColor=none;" parent="1" vertex="1">
          <mxGeometry x="295" y="398" width="50" height="30" as="geometry" />
        </mxCell>
        <mxCell id="eMn3P1zEDU3OZznFEJhk-37" value="" style="html=1;verticalAlign=bottom;endArrow=open;dashed=1;endSize=8;curved=0;rounded=0;" parent="1" edge="1">
          <mxGeometry relative="1" as="geometry">
            <mxPoint x="840" y="428" as="sourcePoint" />
            <mxPoint x="595" y="428" as="targetPoint" />
          </mxGeometry>
        </mxCell>
        <mxCell id="eMn3P1zEDU3OZznFEJhk-38" value="FarmerAssignments(FarmerID)&amp;nbsp;" style="edgeLabel;html=1;align=center;verticalAlign=middle;resizable=0;points=[];" parent="eMn3P1zEDU3OZznFEJhk-37" vertex="1" connectable="0">
          <mxGeometry x="0.2925" y="-3" relative="1" as="geometry">
            <mxPoint x="38" y="-12" as="offset" />
          </mxGeometry>
        </mxCell>
        <mxCell id="eMn3P1zEDU3OZznFEJhk-39" value="" style="html=1;verticalAlign=bottom;endArrow=open;dashed=1;endSize=8;curved=0;rounded=0;" parent="1" edge="1">
          <mxGeometry relative="1" as="geometry">
            <mxPoint x="580" y="438" as="sourcePoint" />
            <mxPoint x="380" y="438" as="targetPoint" />
          </mxGeometry>
        </mxCell>
        <mxCell id="eMn3P1zEDU3OZznFEJhk-40" value="ViewAssignments()&amp;nbsp;" style="edgeLabel;html=1;align=center;verticalAlign=middle;resizable=0;points=[];" parent="eMn3P1zEDU3OZznFEJhk-39" vertex="1" connectable="0">
          <mxGeometry x="0.2925" y="-3" relative="1" as="geometry">
            <mxPoint x="38" y="-12" as="offset" />
          </mxGeometry>
        </mxCell>
        <mxCell id="eMn3P1zEDU3OZznFEJhk-42" value="" style="endArrow=block;endFill=1;html=1;edgeStyle=orthogonalEdgeStyle;align=left;verticalAlign=top;rounded=0;" parent="1" edge="1">
          <mxGeometry x="-1" relative="1" as="geometry">
            <mxPoint x="370" y="479.82" as="sourcePoint" />
            <mxPoint x="185" y="479.82" as="targetPoint" />
            <Array as="points">
              <mxPoint x="250" y="479.82" />
              <mxPoint x="250" y="479.82" />
            </Array>
          </mxGeometry>
        </mxCell>
        <mxCell id="eMn3P1zEDU3OZznFEJhk-44" value="View My Assignments&amp;nbsp;" style="text;html=1;align=center;verticalAlign=middle;resizable=0;points=[];autosize=1;strokeColor=none;fillColor=none;" parent="1" vertex="1">
          <mxGeometry x="190" y="458" width="140" height="30" as="geometry" />
        </mxCell>
        <mxCell id="eMn3P1zEDU3OZznFEJhk-47" value="" style="endArrow=none;dashed=1;html=1;rounded=0;entryX=0.5;entryY=1;entryDx=0;entryDy=0;" parent="1" target="eMn3P1zEDU3OZznFEJhk-4" edge="1">
          <mxGeometry width="50" height="50" relative="1" as="geometry">
            <mxPoint x="375" y="130" as="sourcePoint" />
            <mxPoint x="500" y="-60" as="targetPoint" />
          </mxGeometry>
        </mxCell>
        <mxCell id="eMn3P1zEDU3OZznFEJhk-49" value="" style="endArrow=none;dashed=1;html=1;rounded=0;entryX=0.5;entryY=1;entryDx=0;entryDy=0;" parent="1" target="eMn3P1zEDU3OZznFEJhk-5" edge="1">
          <mxGeometry width="50" height="50" relative="1" as="geometry">
            <mxPoint x="590" y="140" as="sourcePoint" />
            <mxPoint x="640" y="90" as="targetPoint" />
          </mxGeometry>
        </mxCell>
        <mxCell id="eMn3P1zEDU3OZznFEJhk-50" value="" style="endArrow=none;dashed=1;html=1;rounded=0;entryX=0.5;entryY=1;entryDx=0;entryDy=0;" parent="1" target="eMn3P1zEDU3OZznFEJhk-6" edge="1">
          <mxGeometry width="50" height="50" relative="1" as="geometry">
            <mxPoint x="845" y="140" as="sourcePoint" />
            <mxPoint x="900" y="90" as="targetPoint" />
          </mxGeometry>
        </mxCell>
        <mxCell id="eMn3P1zEDU3OZznFEJhk-51" value="" style="endArrow=none;dashed=1;html=1;rounded=0;exitX=0.005;exitY=0.694;exitDx=0;exitDy=0;exitPerimeter=0;entryX=1.002;entryY=0.689;entryDx=0;entryDy=0;entryPerimeter=0;" parent="1" edge="1">
          <mxGeometry width="50" height="50" relative="1" as="geometry">
            <mxPoint x="299.9950000000002" y="398.00000000000017" as="sourcePoint" />
            <mxPoint x="941.2700000000002" y="394.20000000000016" as="targetPoint" />
          </mxGeometry>
        </mxCell>
        <mxCell id="eMn3P1zEDU3OZznFEJhk-55" value="" style="endArrow=none;dashed=1;html=1;rounded=0;exitX=0.064;exitY=1.001;exitDx=0;exitDy=0;exitPerimeter=0;" parent="1" source="eMn3P1zEDU3OZznFEJhk-26" edge="1">
          <mxGeometry width="50" height="50" relative="1" as="geometry">
            <mxPoint x="130" y="650" as="sourcePoint" />
            <mxPoint x="180" y="600" as="targetPoint" />
          </mxGeometry>
        </mxCell>
        <mxCell id="eMn3P1zEDU3OZznFEJhk-56" value="" style="endArrow=none;dashed=1;html=1;rounded=0;exitX=0.274;exitY=1;exitDx=0;exitDy=0;exitPerimeter=0;" parent="1" source="eMn3P1zEDU3OZznFEJhk-26" target="eMn3P1zEDU3OZznFEJhk-3" edge="1">
          <mxGeometry width="50" height="50" relative="1" as="geometry">
            <mxPoint x="190" y="641" as="sourcePoint" />
            <mxPoint x="190" y="610" as="targetPoint" />
          </mxGeometry>
        </mxCell>
        <mxCell id="eMn3P1zEDU3OZznFEJhk-57" value="" style="endArrow=none;dashed=1;html=1;rounded=0;exitX=0.506;exitY=1.002;exitDx=0;exitDy=0;exitPerimeter=0;" parent="1" source="eMn3P1zEDU3OZznFEJhk-26" target="eMn3P1zEDU3OZznFEJhk-14" edge="1">
          <mxGeometry width="50" height="50" relative="1" as="geometry">
            <mxPoint x="570" y="680" as="sourcePoint" />
            <mxPoint x="200" y="620" as="targetPoint" />
          </mxGeometry>
        </mxCell>
        <mxCell id="eMn3P1zEDU3OZznFEJhk-58" value="" style="endArrow=none;dashed=1;html=1;rounded=0;exitX=0.778;exitY=1.002;exitDx=0;exitDy=0;exitPerimeter=0;" parent="1" source="eMn3P1zEDU3OZznFEJhk-26" target="eMn3P1zEDU3OZznFEJhk-15" edge="1">
          <mxGeometry width="50" height="50" relative="1" as="geometry">
            <mxPoint x="850" y="640" as="sourcePoint" />
            <mxPoint x="850" y="580" as="targetPoint" />
          </mxGeometry>
        </mxCell>
<<<<<<< HEAD
        <mxCell id="eMn3P1zEDU3OZznFEJhk-60" value="sd Assign Plot Field&amp;nbsp;" style="shape=umlFrame;whiteSpace=wrap;html=1;pointerEvents=0;width=130;height=40;" parent="1" vertex="1">
          <mxGeometry x="200" y="820" width="1250" height="1160" as="geometry" />
=======
        <mxCell id="eMn3P1zEDU3OZznFEJhk-60" value="sd Manager&amp;nbsp; Assign Farmer Field&amp;nbsp;" style="shape=umlFrame;whiteSpace=wrap;html=1;pointerEvents=0;width=130;height=40;" vertex="1" parent="1">
          <mxGeometry x="200" y="790" width="1250" height="860" as="geometry" />
>>>>>>> 305c2df77bcbca33457f7de318375c8cdc31b33d
        </mxCell>
        <mxCell id="eMn3P1zEDU3OZznFEJhk-61" value="" style="shape=umlLifeline;perimeter=lifelinePerimeter;whiteSpace=wrap;html=1;container=1;dropTarget=0;collapsible=0;recursiveResize=0;outlineConnect=0;portConstraint=eastwest;newEdgeStyle={&quot;curved&quot;:0,&quot;rounded&quot;:0};participant=umlActor;" parent="1" vertex="1">
          <mxGeometry x="275" y="910" width="20" height="100" as="geometry" />
        </mxCell>
<<<<<<< HEAD
        <mxCell id="eMn3P1zEDU3OZznFEJhk-62" value="" style="html=1;points=[[0,0,0,0,5],[0,1,0,0,-5],[1,0,0,0,5],[1,1,0,0,-5]];perimeter=orthogonalPerimeter;outlineConnect=0;targetShapes=umlLifeline;portConstraint=eastwest;newEdgeStyle={&quot;curved&quot;:0,&quot;rounded&quot;:0};" parent="1" vertex="1">
          <mxGeometry x="280" y="1010" width="10" height="470" as="geometry" />
        </mxCell>
        <mxCell id="eMn3P1zEDU3OZznFEJhk-63" value=":UI&amp;nbsp;" style="html=1;whiteSpace=wrap;" parent="1" vertex="1">
          <mxGeometry x="505" y="890" width="80" height="50" as="geometry" />
=======
        <mxCell id="eMn3P1zEDU3OZznFEJhk-62" value="" style="html=1;points=[[0,0,0,0,5],[0,1,0,0,-5],[1,0,0,0,5],[1,1,0,0,-5]];perimeter=orthogonalPerimeter;outlineConnect=0;targetShapes=umlLifeline;portConstraint=eastwest;newEdgeStyle={&quot;curved&quot;:0,&quot;rounded&quot;:0};" vertex="1" parent="1">
          <mxGeometry x="280" y="1010" width="10" height="510" as="geometry" />
>>>>>>> 305c2df77bcbca33457f7de318375c8cdc31b33d
        </mxCell>
        <mxCell id="eMn3P1zEDU3OZznFEJhk-64" value=":API" style="html=1;whiteSpace=wrap;" parent="1" vertex="1">
          <mxGeometry x="830" y="890" width="80" height="50" as="geometry" />
        </mxCell>
        <mxCell id="eMn3P1zEDU3OZznFEJhk-65" value=":Database" style="html=1;whiteSpace=wrap;" parent="1" vertex="1">
          <mxGeometry x="1160" y="890" width="80" height="50" as="geometry" />
        </mxCell>
<<<<<<< HEAD
        <mxCell id="eMn3P1zEDU3OZznFEJhk-67" value="" style="html=1;points=[[0,0,0,0,5],[0,1,0,0,-5],[1,0,0,0,5],[1,1,0,0,-5]];perimeter=orthogonalPerimeter;outlineConnect=0;targetShapes=umlLifeline;portConstraint=eastwest;newEdgeStyle={&quot;curved&quot;:0,&quot;rounded&quot;:0};" parent="1" vertex="1">
          <mxGeometry x="550" y="1040" width="10" height="470" as="geometry" />
        </mxCell>
        <mxCell id="eMn3P1zEDU3OZznFEJhk-68" value="" style="html=1;points=[[0,0,0,0,5],[0,1,0,0,-5],[1,0,0,0,5],[1,1,0,0,-5]];perimeter=orthogonalPerimeter;outlineConnect=0;targetShapes=umlLifeline;portConstraint=eastwest;newEdgeStyle={&quot;curved&quot;:0,&quot;rounded&quot;:0};" parent="1" vertex="1">
          <mxGeometry x="855" y="1040" width="10" height="470" as="geometry" />
        </mxCell>
        <mxCell id="eMn3P1zEDU3OZznFEJhk-69" value="" style="html=1;points=[[0,0,0,0,5],[0,1,0,0,-5],[1,0,0,0,5],[1,1,0,0,-5]];perimeter=orthogonalPerimeter;outlineConnect=0;targetShapes=umlLifeline;portConstraint=eastwest;newEdgeStyle={&quot;curved&quot;:0,&quot;rounded&quot;:0};" parent="1" vertex="1">
          <mxGeometry x="1190" y="1040" width="10" height="470" as="geometry" />
=======
        <mxCell id="eMn3P1zEDU3OZznFEJhk-67" value="" style="html=1;points=[[0,0,0,0,5],[0,1,0,0,-5],[1,0,0,0,5],[1,1,0,0,-5]];perimeter=orthogonalPerimeter;outlineConnect=0;targetShapes=umlLifeline;portConstraint=eastwest;newEdgeStyle={&quot;curved&quot;:0,&quot;rounded&quot;:0};" vertex="1" parent="1">
          <mxGeometry x="550" y="1050" width="10" height="460" as="geometry" />
        </mxCell>
        <mxCell id="eMn3P1zEDU3OZznFEJhk-68" value="" style="html=1;points=[[0,0,0,0,5],[0,1,0,0,-5],[1,0,0,0,5],[1,1,0,0,-5]];perimeter=orthogonalPerimeter;outlineConnect=0;targetShapes=umlLifeline;portConstraint=eastwest;newEdgeStyle={&quot;curved&quot;:0,&quot;rounded&quot;:0};" vertex="1" parent="1">
          <mxGeometry x="855" y="1070" width="10" height="470" as="geometry" />
        </mxCell>
        <mxCell id="eMn3P1zEDU3OZznFEJhk-69" value="" style="html=1;points=[[0,0,0,0,5],[0,1,0,0,-5],[1,0,0,0,5],[1,1,0,0,-5]];perimeter=orthogonalPerimeter;outlineConnect=0;targetShapes=umlLifeline;portConstraint=eastwest;newEdgeStyle={&quot;curved&quot;:0,&quot;rounded&quot;:0};" vertex="1" parent="1">
          <mxGeometry x="1190" y="1090" width="10" height="420" as="geometry" />
>>>>>>> 305c2df77bcbca33457f7de318375c8cdc31b33d
        </mxCell>
        <mxCell id="eMn3P1zEDU3OZznFEJhk-70" value="Manager" style="text;html=1;align=center;verticalAlign=middle;resizable=0;points=[];autosize=1;strokeColor=none;fillColor=none;" parent="1" vertex="1">
          <mxGeometry x="250" y="890" width="70" height="30" as="geometry" />
        </mxCell>
        <mxCell id="eMn3P1zEDU3OZznFEJhk-75" value="" style="endArrow=classic;html=1;rounded=0;" parent="1" edge="1">
          <mxGeometry width="50" height="50" relative="1" as="geometry">
            <mxPoint x="290" y="1050" as="sourcePoint" />
            <mxPoint x="550" y="1050" as="targetPoint" />
          </mxGeometry>
        </mxCell>
<<<<<<< HEAD
        <mxCell id="eMn3P1zEDU3OZznFEJhk-76" value="Clicks Assign Farmer Assignment Button&amp;nbsp;" style="text;html=1;align=center;verticalAlign=middle;resizable=0;points=[];autosize=1;strokeColor=none;fillColor=none;" parent="1" vertex="1">
          <mxGeometry x="300" y="1028" width="240" height="30" as="geometry" />
=======
        <mxCell id="eMn3P1zEDU3OZznFEJhk-76" value="Clicks Assign Farmer Field Button&amp;nbsp;" style="text;html=1;align=center;verticalAlign=middle;resizable=0;points=[];autosize=1;strokeColor=none;fillColor=none;" vertex="1" parent="1">
          <mxGeometry x="315" y="1028" width="210" height="30" as="geometry" />
        </mxCell>
        <mxCell id="eMn3P1zEDU3OZznFEJhk-79" value="" style="endArrow=classic;html=1;rounded=0;" edge="1" parent="1" target="eMn3P1zEDU3OZznFEJhk-68">
          <mxGeometry width="50" height="50" relative="1" as="geometry">
            <mxPoint x="560" y="1070" as="sourcePoint" />
            <mxPoint x="820" y="1070" as="targetPoint" />
          </mxGeometry>
        </mxCell>
        <mxCell id="eMn3P1zEDU3OZznFEJhk-80" value="" style="endArrow=classic;html=1;rounded=0;" edge="1" parent="1" target="eMn3P1zEDU3OZznFEJhk-69">
          <mxGeometry width="50" height="50" relative="1" as="geometry">
            <mxPoint x="865" y="1090" as="sourcePoint" />
            <mxPoint x="1160" y="1090" as="targetPoint" />
          </mxGeometry>
        </mxCell>
        <mxCell id="eMn3P1zEDU3OZznFEJhk-81" value="AssignPlotField(FarmerName)" style="text;html=1;align=center;verticalAlign=middle;resizable=0;points=[];autosize=1;strokeColor=none;fillColor=none;" vertex="1" parent="1">
          <mxGeometry x="600" y="1048" width="180" height="30" as="geometry" />
        </mxCell>
        <mxCell id="eMn3P1zEDU3OZznFEJhk-82" value="AssignFieldIfEmpty(FieldID)" style="text;html=1;align=center;verticalAlign=middle;resizable=0;points=[];autosize=1;strokeColor=none;fillColor=none;" vertex="1" parent="1">
          <mxGeometry x="950" y="1070" width="170" height="30" as="geometry" />
        </mxCell>
        <mxCell id="eMn3P1zEDU3OZznFEJhk-83" value="" style="html=1;points=[[0,0,0,0,5],[0,1,0,0,-5],[1,0,0,0,5],[1,1,0,0,-5]];perimeter=orthogonalPerimeter;outlineConnect=0;targetShapes=umlLifeline;portConstraint=eastwest;newEdgeStyle={&quot;curved&quot;:0,&quot;rounded&quot;:0};" vertex="1" parent="1">
          <mxGeometry x="1195" y="1110" width="10" height="10" as="geometry" />
        </mxCell>
        <mxCell id="eMn3P1zEDU3OZznFEJhk-84" value="isAvailable for use" style="html=1;align=left;spacingLeft=2;endArrow=block;rounded=0;edgeStyle=orthogonalEdgeStyle;curved=0;rounded=0;" edge="1" target="eMn3P1zEDU3OZznFEJhk-83" parent="1">
          <mxGeometry relative="1" as="geometry">
            <mxPoint x="1200" y="1080" as="sourcePoint" />
            <Array as="points">
              <mxPoint x="1200" y="1100" />
              <mxPoint x="1235" y="1100" />
              <mxPoint x="1235" y="1110" />
            </Array>
          </mxGeometry>
        </mxCell>
        <mxCell id="eMn3P1zEDU3OZznFEJhk-86" value="" style="endArrow=open;endSize=12;dashed=1;html=1;rounded=0;" edge="1" parent="1">
          <mxGeometry width="160" relative="1" as="geometry">
            <mxPoint x="1190" y="1152.47" as="sourcePoint" />
            <mxPoint x="865" y="1152.47" as="targetPoint" />
          </mxGeometry>
        </mxCell>
        <mxCell id="eMn3P1zEDU3OZznFEJhk-87" value="errorMessage()" style="text;html=1;align=center;verticalAlign=middle;resizable=0;points=[];autosize=1;strokeColor=none;fillColor=none;" vertex="1" parent="1">
          <mxGeometry x="970" y="1130" width="110" height="30" as="geometry" />
        </mxCell>
        <mxCell id="eMn3P1zEDU3OZznFEJhk-88" value="" style="endArrow=open;endSize=12;dashed=1;html=1;rounded=0;" edge="1" parent="1">
          <mxGeometry width="160" relative="1" as="geometry">
            <mxPoint x="855" y="1160" as="sourcePoint" />
            <mxPoint x="560" y="1160" as="targetPoint" />
          </mxGeometry>
        </mxCell>
        <mxCell id="eMn3P1zEDU3OZznFEJhk-91" value="Field&amp;nbsp; already Occupied" style="text;html=1;align=center;verticalAlign=middle;resizable=0;points=[];autosize=1;strokeColor=none;fillColor=none;" vertex="1" parent="1">
          <mxGeometry x="615" y="1138" width="150" height="30" as="geometry" />
        </mxCell>
        <mxCell id="eMn3P1zEDU3OZznFEJhk-95" value="alt" style="shape=umlFrame;whiteSpace=wrap;html=1;pointerEvents=0;" vertex="1" parent="1">
          <mxGeometry x="450" y="1130" width="790" height="230" as="geometry" />
        </mxCell>
        <mxCell id="eMn3P1zEDU3OZznFEJhk-96" value="[false]" style="text;html=1;align=center;verticalAlign=middle;resizable=0;points=[];autosize=1;strokeColor=none;fillColor=none;" vertex="1" parent="1">
          <mxGeometry x="450" y="1178" width="60" height="30" as="geometry" />
        </mxCell>
        <mxCell id="eMn3P1zEDU3OZznFEJhk-97" value="" style="endArrow=none;dashed=1;html=1;rounded=0;exitX=0;exitY=0.288;exitDx=0;exitDy=0;exitPerimeter=0;" edge="1" parent="1">
          <mxGeometry width="50" height="50" relative="1" as="geometry">
            <mxPoint x="453.29" y="1220.0000000000002" as="sourcePoint" />
            <mxPoint x="1246.71" y="1221.2680722891569" as="targetPoint" />
          </mxGeometry>
        </mxCell>
        <mxCell id="eMn3P1zEDU3OZznFEJhk-98" value="[true]" style="text;html=1;align=center;verticalAlign=middle;resizable=0;points=[];autosize=1;strokeColor=none;fillColor=none;" vertex="1" parent="1">
          <mxGeometry x="455" y="1228" width="50" height="30" as="geometry" />
        </mxCell>
        <mxCell id="eMn3P1zEDU3OZznFEJhk-99" value="" style="endArrow=open;endSize=12;dashed=1;html=1;rounded=0;" edge="1" parent="1">
          <mxGeometry width="160" relative="1" as="geometry">
            <mxPoint x="1187.5" y="1244" as="sourcePoint" />
            <mxPoint x="862.5" y="1244" as="targetPoint" />
          </mxGeometry>
        </mxCell>
        <mxCell id="eMn3P1zEDU3OZznFEJhk-100" value="Assigned Field(FieldID)" style="text;html=1;align=center;verticalAlign=middle;resizable=0;points=[];autosize=1;strokeColor=none;fillColor=none;" vertex="1" parent="1">
          <mxGeometry x="905" y="1218" width="150" height="30" as="geometry" />
        </mxCell>
        <mxCell id="eMn3P1zEDU3OZznFEJhk-105" value="" style="endArrow=none;dashed=1;html=1;rounded=0;exitX=0.069;exitY=1.002;exitDx=0;exitDy=0;exitPerimeter=0;" edge="1" parent="1" source="eMn3P1zEDU3OZznFEJhk-60">
          <mxGeometry width="50" height="50" relative="1" as="geometry">
            <mxPoint x="235" y="1570" as="sourcePoint" />
            <mxPoint x="285" y="1520" as="targetPoint" />
          </mxGeometry>
        </mxCell>
        <mxCell id="eMn3P1zEDU3OZznFEJhk-106" value="" style="endArrow=none;dashed=1;html=1;rounded=0;entryX=0;entryY=1;entryDx=0;entryDy=-5;entryPerimeter=0;exitX=0.284;exitY=1.001;exitDx=0;exitDy=0;exitPerimeter=0;" edge="1" parent="1" source="eMn3P1zEDU3OZznFEJhk-60">
          <mxGeometry width="50" height="50" relative="1" as="geometry">
            <mxPoint x="555" y="1640" as="sourcePoint" />
            <mxPoint x="554.66" y="1510" as="targetPoint" />
          </mxGeometry>
        </mxCell>
        <mxCell id="eMn3P1zEDU3OZznFEJhk-107" value="" style="endArrow=none;dashed=1;html=1;rounded=0;exitX=0.526;exitY=1.003;exitDx=0;exitDy=0;exitPerimeter=0;entryX=0.433;entryY=0.997;entryDx=0;entryDy=0;entryPerimeter=0;" edge="1" parent="1" source="eMn3P1zEDU3OZznFEJhk-60" target="eMn3P1zEDU3OZznFEJhk-68">
          <mxGeometry width="50" height="50" relative="1" as="geometry">
            <mxPoint x="825" y="1600" as="sourcePoint" />
            <mxPoint x="875" y="1550" as="targetPoint" />
          </mxGeometry>
        </mxCell>
        <mxCell id="eMn3P1zEDU3OZznFEJhk-108" value="" style="endArrow=none;dashed=1;html=1;rounded=0;exitX=0.797;exitY=1.001;exitDx=0;exitDy=0;exitPerimeter=0;" edge="1" parent="1" source="eMn3P1zEDU3OZznFEJhk-60" target="eMn3P1zEDU3OZznFEJhk-69">
          <mxGeometry width="50" height="50" relative="1" as="geometry">
            <mxPoint x="1000" y="1450" as="sourcePoint" />
            <mxPoint x="1050" y="1400" as="targetPoint" />
            <Array as="points">
              <mxPoint x="1195" y="1590" />
            </Array>
          </mxGeometry>
        </mxCell>
        <mxCell id="eMn3P1zEDU3OZznFEJhk-112" value="" style="endArrow=none;dashed=1;html=1;rounded=0;entryX=0.381;entryY=1.043;entryDx=0;entryDy=0;entryPerimeter=0;" edge="1" parent="1" source="eMn3P1zEDU3OZznFEJhk-68" target="eMn3P1zEDU3OZznFEJhk-64">
          <mxGeometry width="50" height="50" relative="1" as="geometry">
            <mxPoint x="860.5400000000001" y="1040" as="sourcePoint" />
            <mxPoint x="859.4599999999998" y="940.4499999999998" as="targetPoint" />
          </mxGeometry>
        </mxCell>
        <mxCell id="eMn3P1zEDU3OZznFEJhk-113" value="" style="endArrow=none;dashed=1;html=1;rounded=0;" edge="1" parent="1" source="eMn3P1zEDU3OZznFEJhk-69" target="eMn3P1zEDU3OZznFEJhk-65">
          <mxGeometry width="50" height="50" relative="1" as="geometry">
            <mxPoint x="1170" y="1010" as="sourcePoint" />
            <mxPoint x="1220" y="960" as="targetPoint" />
          </mxGeometry>
        </mxCell>
        <mxCell id="eMn3P1zEDU3OZznFEJhk-114" value=":UI" style="shape=umlLifeline;perimeter=lifelinePerimeter;whiteSpace=wrap;html=1;container=1;dropTarget=0;collapsible=0;recursiveResize=0;outlineConnect=0;portConstraint=eastwest;newEdgeStyle={&quot;curved&quot;:0,&quot;rounded&quot;:0};" vertex="1" parent="1">
          <mxGeometry x="505" y="893" width="100" height="147" as="geometry" />
        </mxCell>
        <mxCell id="eMn3P1zEDU3OZznFEJhk-115" value="Manage Farmer&#39;s Tasks" style="shape=umlFrame;whiteSpace=wrap;html=1;pointerEvents=0;width=320;height=50;" vertex="1" parent="1">
          <mxGeometry x="310" y="1900" width="1285" height="1090" as="geometry" />
        </mxCell>
        <mxCell id="eMn3P1zEDU3OZznFEJhk-117" value="" style="html=1;points=[[0,0,0,0,5],[0,1,0,0,-5],[1,0,0,0,5],[1,1,0,0,-5]];perimeter=orthogonalPerimeter;outlineConnect=0;targetShapes=umlLifeline;portConstraint=eastwest;newEdgeStyle={&quot;curved&quot;:0,&quot;rounded&quot;:0};" vertex="1" parent="1">
          <mxGeometry x="555" y="1320" width="10" height="40" as="geometry" />
        </mxCell>
        <mxCell id="eMn3P1zEDU3OZznFEJhk-118" value="DisplayMessage()" style="html=1;align=left;spacingLeft=2;endArrow=block;rounded=0;edgeStyle=orthogonalEdgeStyle;curved=0;rounded=0;" edge="1" target="eMn3P1zEDU3OZznFEJhk-117" parent="1">
          <mxGeometry relative="1" as="geometry">
            <mxPoint x="560" y="1300" as="sourcePoint" />
            <Array as="points">
              <mxPoint x="590" y="1330" />
            </Array>
          </mxGeometry>
        </mxCell>
        <mxCell id="eMn3P1zEDU3OZznFEJhk-119" value="Successfully Assigned Farmer Field" style="text;html=1;align=center;verticalAlign=middle;resizable=0;points=[];autosize=1;strokeColor=none;fillColor=none;" vertex="1" parent="1">
          <mxGeometry x="600" y="1250" width="210" height="30" as="geometry" />
        </mxCell>
        <mxCell id="eMn3P1zEDU3OZznFEJhk-120" value="" style="endArrow=classic;html=1;rounded=0;" edge="1" parent="1" target="eMn3P1zEDU3OZznFEJhk-67">
          <mxGeometry width="50" height="50" relative="1" as="geometry">
            <mxPoint x="855" y="1274.62" as="sourcePoint" />
            <mxPoint x="595" y="1274.62" as="targetPoint" />
            <Array as="points">
              <mxPoint x="725" y="1274.62" />
            </Array>
          </mxGeometry>
        </mxCell>
        <mxCell id="eMn3P1zEDU3OZznFEJhk-121" value="checking if it has reached full capacity" style="text;html=1;align=center;verticalAlign=middle;resizable=0;points=[];autosize=1;strokeColor=none;fillColor=none;" vertex="1" parent="1">
          <mxGeometry x="1195" y="1108" width="220" height="30" as="geometry" />
        </mxCell>
        <mxCell id="eMn3P1zEDU3OZznFEJhk-123" value="" style="shape=umlLifeline;perimeter=lifelinePerimeter;whiteSpace=wrap;html=1;container=1;dropTarget=0;collapsible=0;recursiveResize=0;outlineConnect=0;portConstraint=eastwest;newEdgeStyle={&quot;curved&quot;:0,&quot;rounded&quot;:0};participant=umlActor;" vertex="1" parent="1">
          <mxGeometry x="450" y="2160" width="20" height="120" as="geometry" />
        </mxCell>
        <mxCell id="eMn3P1zEDU3OZznFEJhk-124" value=":UI" style="shape=umlLifeline;perimeter=lifelinePerimeter;whiteSpace=wrap;html=1;container=1;dropTarget=0;collapsible=0;recursiveResize=0;outlineConnect=0;portConstraint=eastwest;newEdgeStyle={&quot;curved&quot;:0,&quot;rounded&quot;:0};" vertex="1" parent="1">
          <mxGeometry x="750" y="2160" width="100" height="680" as="geometry" />
        </mxCell>
        <mxCell id="eMn3P1zEDU3OZznFEJhk-129" value="" style="html=1;points=[[0,0,0,0,5],[0,1,0,0,-5],[1,0,0,0,5],[1,1,0,0,-5]];perimeter=orthogonalPerimeter;outlineConnect=0;targetShapes=umlLifeline;portConstraint=eastwest;newEdgeStyle={&quot;curved&quot;:0,&quot;rounded&quot;:0};" vertex="1" parent="eMn3P1zEDU3OZznFEJhk-124">
          <mxGeometry x="45" y="160" width="10" height="520" as="geometry" />
        </mxCell>
        <mxCell id="eMn3P1zEDU3OZznFEJhk-142" value="" style="html=1;points=[[0,0,0,0,5],[0,1,0,0,-5],[1,0,0,0,5],[1,1,0,0,-5]];perimeter=orthogonalPerimeter;outlineConnect=0;targetShapes=umlLifeline;portConstraint=eastwest;newEdgeStyle={&quot;curved&quot;:0,&quot;rounded&quot;:0};" vertex="1" parent="eMn3P1zEDU3OZznFEJhk-124">
          <mxGeometry x="55" y="180" width="10" height="20" as="geometry" />
        </mxCell>
        <mxCell id="eMn3P1zEDU3OZznFEJhk-156" value="" style="html=1;points=[[0,0,0,0,5],[0,1,0,0,-5],[1,0,0,0,5],[1,1,0,0,-5]];perimeter=orthogonalPerimeter;outlineConnect=0;targetShapes=umlLifeline;portConstraint=eastwest;newEdgeStyle={&quot;curved&quot;:0,&quot;rounded&quot;:0};" vertex="1" parent="eMn3P1zEDU3OZznFEJhk-124">
          <mxGeometry x="55" y="460" width="10" height="20" as="geometry" />
        </mxCell>
        <mxCell id="eMn3P1zEDU3OZznFEJhk-125" value=":API" style="shape=umlLifeline;perimeter=lifelinePerimeter;whiteSpace=wrap;html=1;container=1;dropTarget=0;collapsible=0;recursiveResize=0;outlineConnect=0;portConstraint=eastwest;newEdgeStyle={&quot;curved&quot;:0,&quot;rounded&quot;:0};" vertex="1" parent="1">
          <mxGeometry x="1090" y="2160" width="100" height="690" as="geometry" />
        </mxCell>
        <mxCell id="eMn3P1zEDU3OZznFEJhk-130" value="" style="html=1;points=[[0,0,0,0,5],[0,1,0,0,-5],[1,0,0,0,5],[1,1,0,0,-5]];perimeter=orthogonalPerimeter;outlineConnect=0;targetShapes=umlLifeline;portConstraint=eastwest;newEdgeStyle={&quot;curved&quot;:0,&quot;rounded&quot;:0};" vertex="1" parent="eMn3P1zEDU3OZznFEJhk-125">
          <mxGeometry x="45" y="290" width="10" height="400" as="geometry" />
        </mxCell>
        <mxCell id="eMn3P1zEDU3OZznFEJhk-126" value=":Database" style="shape=umlLifeline;perimeter=lifelinePerimeter;whiteSpace=wrap;html=1;container=1;dropTarget=0;collapsible=0;recursiveResize=0;outlineConnect=0;portConstraint=eastwest;newEdgeStyle={&quot;curved&quot;:0,&quot;rounded&quot;:0};" vertex="1" parent="1">
          <mxGeometry x="1380" y="2160" width="100" height="320" as="geometry" />
        </mxCell>
        <mxCell id="eMn3P1zEDU3OZznFEJhk-127" value="" style="html=1;points=[[0,0,0,0,5],[0,1,0,0,-5],[1,0,0,0,5],[1,1,0,0,-5]];perimeter=orthogonalPerimeter;outlineConnect=0;targetShapes=umlLifeline;portConstraint=eastwest;newEdgeStyle={&quot;curved&quot;:0,&quot;rounded&quot;:0};" vertex="1" parent="1">
          <mxGeometry x="455" y="2280" width="10" height="560" as="geometry" />
        </mxCell>
        <mxCell id="eMn3P1zEDU3OZznFEJhk-132" value="Manager" style="text;html=1;align=center;verticalAlign=middle;resizable=0;points=[];autosize=1;strokeColor=none;fillColor=none;" vertex="1" parent="1">
          <mxGeometry x="425" y="2128" width="70" height="30" as="geometry" />
        </mxCell>
        <mxCell id="eMn3P1zEDU3OZznFEJhk-137" value="" style="endArrow=classic;html=1;rounded=0;" edge="1" parent="1" target="eMn3P1zEDU3OZznFEJhk-124">
          <mxGeometry width="50" height="50" relative="1" as="geometry">
            <mxPoint x="465" y="2319.09" as="sourcePoint" />
            <mxPoint x="525" y="2316.7325806451618" as="targetPoint" />
          </mxGeometry>
        </mxCell>
        <mxCell id="eMn3P1zEDU3OZznFEJhk-131" value="" style="html=1;points=[[0,0,0,0,5],[0,1,0,0,-5],[1,0,0,0,5],[1,1,0,0,-5]];perimeter=orthogonalPerimeter;outlineConnect=0;targetShapes=umlLifeline;portConstraint=eastwest;newEdgeStyle={&quot;curved&quot;:0,&quot;rounded&quot;:0};" vertex="1" parent="1">
          <mxGeometry x="1425" y="2480" width="10" height="380" as="geometry" />
        </mxCell>
        <mxCell id="eMn3P1zEDU3OZznFEJhk-141" value="" style="endArrow=classic;html=1;rounded=0;" edge="1" parent="1">
          <mxGeometry width="50" height="50" relative="1" as="geometry">
            <mxPoint x="1145" y="2480" as="sourcePoint" />
            <mxPoint x="1425" y="2480" as="targetPoint" />
          </mxGeometry>
        </mxCell>
        <mxCell id="eMn3P1zEDU3OZznFEJhk-143" value="Redirects to Task Page" style="html=1;align=left;spacingLeft=2;endArrow=block;rounded=0;edgeStyle=orthogonalEdgeStyle;curved=0;rounded=0;" edge="1" target="eMn3P1zEDU3OZznFEJhk-142" parent="1">
          <mxGeometry x="0.0184" y="8" relative="1" as="geometry">
            <mxPoint x="805" y="2330" as="sourcePoint" />
            <Array as="points">
              <mxPoint x="840" y="2330" />
              <mxPoint x="840" y="2350" />
            </Array>
            <mxPoint x="814.5" y="2399.9999999999995" as="targetPoint" />
            <mxPoint as="offset" />
          </mxGeometry>
        </mxCell>
        <mxCell id="eMn3P1zEDU3OZznFEJhk-144" value="" style="endArrow=classic;html=1;rounded=0;" edge="1" parent="1">
          <mxGeometry width="50" height="50" relative="1" as="geometry">
            <mxPoint x="805" y="2450" as="sourcePoint" />
            <mxPoint x="1135" y="2450" as="targetPoint" />
          </mxGeometry>
        </mxCell>
        <mxCell id="eMn3P1zEDU3OZznFEJhk-146" value="Clicks on the Task Button&amp;nbsp;" style="text;html=1;align=center;verticalAlign=middle;resizable=0;points=[];autosize=1;strokeColor=none;fillColor=none;" vertex="1" parent="1">
          <mxGeometry x="540" y="2290" width="160" height="30" as="geometry" />
        </mxCell>
        <mxCell id="eMn3P1zEDU3OZznFEJhk-147" value="" style="endArrow=classic;html=1;rounded=0;" edge="1" parent="1">
          <mxGeometry width="50" height="50" relative="1" as="geometry">
            <mxPoint x="465" y="2420" as="sourcePoint" />
            <mxPoint x="795" y="2420" as="targetPoint" />
          </mxGeometry>
        </mxCell>
        <mxCell id="eMn3P1zEDU3OZznFEJhk-148" value="Clicks On The View Task Button" style="text;html=1;align=center;verticalAlign=middle;resizable=0;points=[];autosize=1;strokeColor=none;fillColor=none;" vertex="1" parent="1">
          <mxGeometry x="540" y="2398" width="190" height="30" as="geometry" />
        </mxCell>
        <mxCell id="eMn3P1zEDU3OZznFEJhk-149" value="getAllFarmersTasks()" style="text;html=1;align=center;verticalAlign=middle;resizable=0;points=[];autosize=1;strokeColor=none;fillColor=none;" vertex="1" parent="1">
          <mxGeometry x="905" y="2420" width="140" height="30" as="geometry" />
        </mxCell>
        <mxCell id="eMn3P1zEDU3OZznFEJhk-150" value="getAllFarmerTasksUsingField()" style="text;html=1;align=center;verticalAlign=middle;resizable=0;points=[];autosize=1;strokeColor=none;fillColor=none;" vertex="1" parent="1">
          <mxGeometry x="1190" y="2450" width="190" height="30" as="geometry" />
        </mxCell>
        <mxCell id="eMn3P1zEDU3OZznFEJhk-151" value="" style="endArrow=open;endSize=12;dashed=1;html=1;rounded=0;" edge="1" parent="1" target="eMn3P1zEDU3OZznFEJhk-130">
          <mxGeometry width="160" relative="1" as="geometry">
            <mxPoint x="1425" y="2570" as="sourcePoint" />
            <mxPoint x="1265" y="2570" as="targetPoint" />
          </mxGeometry>
        </mxCell>
        <mxCell id="eMn3P1zEDU3OZznFEJhk-152" value="allFarmersTasksList()" style="text;html=1;align=center;verticalAlign=middle;resizable=0;points=[];autosize=1;strokeColor=none;fillColor=none;" vertex="1" parent="1">
          <mxGeometry x="1200" y="2538" width="140" height="30" as="geometry" />
        </mxCell>
        <mxCell id="eMn3P1zEDU3OZznFEJhk-154" value="displayFarmersTaskLists&amp;amp;Progress" style="text;html=1;align=center;verticalAlign=middle;resizable=0;points=[];autosize=1;strokeColor=none;fillColor=none;" vertex="1" parent="1">
          <mxGeometry x="870" y="2568" width="210" height="30" as="geometry" />
        </mxCell>
        <mxCell id="eMn3P1zEDU3OZznFEJhk-155" value="Displays all farmer&#39;s tasks and the fields" style="html=1;align=left;spacingLeft=2;endArrow=block;rounded=0;edgeStyle=orthogonalEdgeStyle;curved=0;rounded=0;" edge="1" parent="1">
          <mxGeometry x="0.0184" y="8" relative="1" as="geometry">
            <mxPoint x="805" y="2610" as="sourcePoint" />
            <Array as="points">
              <mxPoint x="840" y="2610" />
              <mxPoint x="840" y="2630" />
            </Array>
            <mxPoint x="815" y="2630" as="targetPoint" />
            <mxPoint as="offset" />
          </mxGeometry>
        </mxCell>
        <mxCell id="eMn3P1zEDU3OZznFEJhk-157" value="" style="endArrow=classic;html=1;rounded=0;" edge="1" parent="1">
          <mxGeometry width="50" height="50" relative="1" as="geometry">
            <mxPoint x="1135" y="2598" as="sourcePoint" />
            <mxPoint x="805" y="2598" as="targetPoint" />
          </mxGeometry>
        </mxCell>
        <mxCell id="eMn3P1zEDU3OZznFEJhk-158" value="" style="endArrow=none;dashed=1;html=1;rounded=0;" edge="1" parent="1" source="eMn3P1zEDU3OZznFEJhk-124">
          <mxGeometry width="50" height="50" relative="1" as="geometry">
            <mxPoint x="960" y="2950" as="sourcePoint" />
            <mxPoint x="800" y="3000" as="targetPoint" />
            <Array as="points">
              <mxPoint x="800" y="2960" />
            </Array>
          </mxGeometry>
        </mxCell>
        <mxCell id="eMn3P1zEDU3OZznFEJhk-159" value="" style="endArrow=none;dashed=1;html=1;rounded=0;entryX=0.521;entryY=1.005;entryDx=0;entryDy=0;entryPerimeter=0;exitX=0.646;exitY=1;exitDx=0;exitDy=0;exitPerimeter=0;" edge="1" parent="1" source="eMn3P1zEDU3OZznFEJhk-115" target="eMn3P1zEDU3OZznFEJhk-130">
          <mxGeometry width="50" height="50" relative="1" as="geometry">
            <mxPoint x="1100" y="2950" as="sourcePoint" />
            <mxPoint x="1150" y="2900" as="targetPoint" />
          </mxGeometry>
        </mxCell>
        <mxCell id="eMn3P1zEDU3OZznFEJhk-160" value="" style="endArrow=none;dashed=1;html=1;rounded=0;" edge="1" parent="1">
          <mxGeometry width="50" height="50" relative="1" as="geometry">
            <mxPoint x="1430" y="2990" as="sourcePoint" />
            <mxPoint x="1430" y="2860" as="targetPoint" />
          </mxGeometry>
        </mxCell>
        <mxCell id="eMn3P1zEDU3OZznFEJhk-161" value="" style="endArrow=none;dashed=1;html=1;rounded=0;exitX=0.117;exitY=1.003;exitDx=0;exitDy=0;exitPerimeter=0;" edge="1" parent="1" source="eMn3P1zEDU3OZznFEJhk-115" target="eMn3P1zEDU3OZznFEJhk-127">
          <mxGeometry width="50" height="50" relative="1" as="geometry">
            <mxPoint x="400" y="2940" as="sourcePoint" />
            <mxPoint x="450" y="2890" as="targetPoint" />
          </mxGeometry>
        </mxCell>
        <mxCell id="eMn3P1zEDU3OZznFEJhk-162" value="sd Manager Assign Task To Farmer" style="shape=umlFrame;whiteSpace=wrap;html=1;pointerEvents=0;width=215;height=40;" vertex="1" parent="1">
          <mxGeometry x="235" y="3080" width="1130" height="800" as="geometry" />
        </mxCell>
        <mxCell id="eMn3P1zEDU3OZznFEJhk-163" value=":UI" style="shape=umlLifeline;perimeter=lifelinePerimeter;whiteSpace=wrap;html=1;container=1;dropTarget=0;collapsible=0;recursiveResize=0;outlineConnect=0;portConstraint=eastwest;newEdgeStyle={&quot;curved&quot;:0,&quot;rounded&quot;:0};" vertex="1" parent="1">
          <mxGeometry x="585" y="3160" width="100" height="130" as="geometry" />
        </mxCell>
        <mxCell id="eMn3P1zEDU3OZznFEJhk-164" value=":API" style="shape=umlLifeline;perimeter=lifelinePerimeter;whiteSpace=wrap;html=1;container=1;dropTarget=0;collapsible=0;recursiveResize=0;outlineConnect=0;portConstraint=eastwest;newEdgeStyle={&quot;curved&quot;:0,&quot;rounded&quot;:0};" vertex="1" parent="1">
          <mxGeometry x="855" y="3160" width="100" height="540" as="geometry" />
        </mxCell>
        <mxCell id="eMn3P1zEDU3OZznFEJhk-169" value="" style="html=1;points=[[0,0,0,0,5],[0,1,0,0,-5],[1,0,0,0,5],[1,1,0,0,-5]];perimeter=orthogonalPerimeter;outlineConnect=0;targetShapes=umlLifeline;portConstraint=eastwest;newEdgeStyle={&quot;curved&quot;:0,&quot;rounded&quot;:0};" vertex="1" parent="eMn3P1zEDU3OZznFEJhk-164">
          <mxGeometry x="45" y="380" width="10" height="160" as="geometry" />
        </mxCell>
        <mxCell id="eMn3P1zEDU3OZznFEJhk-165" value=":Database" style="shape=umlLifeline;perimeter=lifelinePerimeter;whiteSpace=wrap;html=1;container=1;dropTarget=0;collapsible=0;recursiveResize=0;outlineConnect=0;portConstraint=eastwest;newEdgeStyle={&quot;curved&quot;:0,&quot;rounded&quot;:0};" vertex="1" parent="1">
          <mxGeometry x="1180" y="3160" width="100" height="400" as="geometry" />
        </mxCell>
        <mxCell id="eMn3P1zEDU3OZznFEJhk-166" value="" style="shape=umlLifeline;perimeter=lifelinePerimeter;whiteSpace=wrap;html=1;container=1;dropTarget=0;collapsible=0;recursiveResize=0;outlineConnect=0;portConstraint=eastwest;newEdgeStyle={&quot;curved&quot;:0,&quot;rounded&quot;:0};participant=umlActor;" vertex="1" parent="1">
          <mxGeometry x="295" y="3170" width="20" height="120" as="geometry" />
        </mxCell>
        <mxCell id="eMn3P1zEDU3OZznFEJhk-167" value="" style="html=1;points=[[0,0,0,0,5],[0,1,0,0,-5],[1,0,0,0,5],[1,1,0,0,-5]];perimeter=orthogonalPerimeter;outlineConnect=0;targetShapes=umlLifeline;portConstraint=eastwest;newEdgeStyle={&quot;curved&quot;:0,&quot;rounded&quot;:0};" vertex="1" parent="1">
          <mxGeometry x="630" y="3290" width="10" height="310" as="geometry" />
        </mxCell>
        <mxCell id="eMn3P1zEDU3OZznFEJhk-168" value="" style="html=1;points=[[0,0,0,0,5],[0,1,0,0,-5],[1,0,0,0,5],[1,1,0,0,-5]];perimeter=orthogonalPerimeter;outlineConnect=0;targetShapes=umlLifeline;portConstraint=eastwest;newEdgeStyle={&quot;curved&quot;:0,&quot;rounded&quot;:0};" vertex="1" parent="1">
          <mxGeometry x="300" y="3280" width="10" height="440" as="geometry" />
        </mxCell>
        <mxCell id="eMn3P1zEDU3OZznFEJhk-170" value="" style="html=1;points=[[0,0,0,0,5],[0,1,0,0,-5],[1,0,0,0,5],[1,1,0,0,-5]];perimeter=orthogonalPerimeter;outlineConnect=0;targetShapes=umlLifeline;portConstraint=eastwest;newEdgeStyle={&quot;curved&quot;:0,&quot;rounded&quot;:0};" vertex="1" parent="1">
          <mxGeometry x="1225" y="3560" width="10" height="90" as="geometry" />
        </mxCell>
        <mxCell id="eMn3P1zEDU3OZznFEJhk-172" value="" style="endArrow=classic;html=1;rounded=0;" edge="1" parent="1">
          <mxGeometry width="50" height="50" relative="1" as="geometry">
            <mxPoint x="310" y="3290" as="sourcePoint" />
            <mxPoint x="630" y="3290" as="targetPoint" />
          </mxGeometry>
        </mxCell>
        <mxCell id="eMn3P1zEDU3OZznFEJhk-173" value="Manager" style="text;html=1;align=center;verticalAlign=middle;resizable=0;points=[];autosize=1;strokeColor=none;fillColor=none;" vertex="1" parent="1">
          <mxGeometry x="265" y="3138" width="70" height="30" as="geometry" />
        </mxCell>
        <mxCell id="eMn3P1zEDU3OZznFEJhk-174" value="Clicks The Task Button" style="text;html=1;align=center;verticalAlign=middle;resizable=0;points=[];autosize=1;strokeColor=none;fillColor=none;" vertex="1" parent="1">
          <mxGeometry x="435" y="3270" width="150" height="30" as="geometry" />
        </mxCell>
        <mxCell id="eMn3P1zEDU3OZznFEJhk-175" value="Redirects to Task Page" style="html=1;align=left;spacingLeft=2;endArrow=block;rounded=0;edgeStyle=orthogonalEdgeStyle;curved=0;rounded=0;" edge="1" parent="1">
          <mxGeometry x="0.0184" y="8" relative="1" as="geometry">
            <mxPoint x="640" y="3360" as="sourcePoint" />
            <Array as="points">
              <mxPoint x="670" y="3360" />
              <mxPoint x="670" y="3380" />
            </Array>
            <mxPoint x="650" y="3380" as="targetPoint" />
            <mxPoint as="offset" />
          </mxGeometry>
        </mxCell>
        <mxCell id="eMn3P1zEDU3OZznFEJhk-176" value="" style="html=1;points=[[0,0,0,0,5],[0,1,0,0,-5],[1,0,0,0,5],[1,1,0,0,-5]];perimeter=orthogonalPerimeter;outlineConnect=0;targetShapes=umlLifeline;portConstraint=eastwest;newEdgeStyle={&quot;curved&quot;:0,&quot;rounded&quot;:0};" vertex="1" parent="1">
          <mxGeometry x="640" y="3370" width="10" height="20" as="geometry" />
        </mxCell>
        <mxCell id="eMn3P1zEDU3OZznFEJhk-178" value="" style="endArrow=classic;html=1;rounded=0;" edge="1" parent="1">
          <mxGeometry width="50" height="50" relative="1" as="geometry">
            <mxPoint x="310" y="3420" as="sourcePoint" />
            <mxPoint x="630" y="3420" as="targetPoint" />
          </mxGeometry>
        </mxCell>
        <mxCell id="eMn3P1zEDU3OZznFEJhk-179" value="Clicks The&amp;nbsp; AddTask Button" style="text;html=1;align=center;verticalAlign=middle;resizable=0;points=[];autosize=1;strokeColor=none;fillColor=none;" vertex="1" parent="1">
          <mxGeometry x="395" y="3398" width="170" height="30" as="geometry" />
        </mxCell>
        <mxCell id="eMn3P1zEDU3OZznFEJhk-180" value="" style="html=1;points=[[0,0,0,0,5],[0,1,0,0,-5],[1,0,0,0,5],[1,1,0,0,-5]];perimeter=orthogonalPerimeter;outlineConnect=0;targetShapes=umlLifeline;portConstraint=eastwest;newEdgeStyle={&quot;curved&quot;:0,&quot;rounded&quot;:0};" vertex="1" parent="1">
          <mxGeometry x="630" y="3290" width="10" height="410" as="geometry" />
        </mxCell>
        <mxCell id="eMn3P1zEDU3OZznFEJhk-181" value="" style="html=1;points=[[0,0,0,0,5],[0,1,0,0,-5],[1,0,0,0,5],[1,1,0,0,-5]];perimeter=orthogonalPerimeter;outlineConnect=0;targetShapes=umlLifeline;portConstraint=eastwest;newEdgeStyle={&quot;curved&quot;:0,&quot;rounded&quot;:0};" vertex="1" parent="1">
          <mxGeometry x="640" y="3445" width="10" height="20" as="geometry" />
        </mxCell>
        <mxCell id="eMn3P1zEDU3OZznFEJhk-182" value="Write Task To Specific Farmer&amp;nbsp;" style="html=1;align=left;spacingLeft=2;endArrow=block;rounded=0;edgeStyle=orthogonalEdgeStyle;curved=0;rounded=0;" edge="1" parent="1">
          <mxGeometry x="0.0184" y="8" relative="1" as="geometry">
            <mxPoint x="640" y="3434.99" as="sourcePoint" />
            <Array as="points">
              <mxPoint x="670" y="3434.99" />
              <mxPoint x="670" y="3454.99" />
            </Array>
            <mxPoint x="650" y="3454.99" as="targetPoint" />
            <mxPoint as="offset" />
          </mxGeometry>
        </mxCell>
        <mxCell id="eMn3P1zEDU3OZznFEJhk-183" value="" style="endArrow=classic;html=1;rounded=0;" edge="1" parent="1">
          <mxGeometry width="50" height="50" relative="1" as="geometry">
            <mxPoint x="310" y="3490" as="sourcePoint" />
            <mxPoint x="630" y="3490" as="targetPoint" />
          </mxGeometry>
        </mxCell>
        <mxCell id="eMn3P1zEDU3OZznFEJhk-184" value="Clicks Submit Button" style="text;html=1;align=center;verticalAlign=middle;resizable=0;points=[];autosize=1;strokeColor=none;fillColor=none;" vertex="1" parent="1">
          <mxGeometry x="385" y="3468" width="130" height="30" as="geometry" />
        </mxCell>
        <mxCell id="eMn3P1zEDU3OZznFEJhk-187" value="" style="endArrow=classic;html=1;rounded=0;" edge="1" parent="1" target="eMn3P1zEDU3OZznFEJhk-169">
          <mxGeometry width="50" height="50" relative="1" as="geometry">
            <mxPoint x="640" y="3540" as="sourcePoint" />
            <mxPoint x="890" y="3540" as="targetPoint" />
          </mxGeometry>
        </mxCell>
        <mxCell id="eMn3P1zEDU3OZznFEJhk-188" value="Assign Task()" style="text;html=1;align=center;verticalAlign=middle;resizable=0;points=[];autosize=1;strokeColor=none;fillColor=none;" vertex="1" parent="1">
          <mxGeometry x="720" y="3510" width="100" height="30" as="geometry" />
        </mxCell>
        <mxCell id="eMn3P1zEDU3OZznFEJhk-189" value="" style="endArrow=classic;html=1;rounded=0;" edge="1" parent="1" target="eMn3P1zEDU3OZznFEJhk-170">
          <mxGeometry width="50" height="50" relative="1" as="geometry">
            <mxPoint x="910" y="3560" as="sourcePoint" />
            <mxPoint x="1170" y="3560" as="targetPoint" />
          </mxGeometry>
        </mxCell>
        <mxCell id="eMn3P1zEDU3OZznFEJhk-190" value="AssignTaskToFarmer(FarmerID)" style="text;html=1;align=center;verticalAlign=middle;resizable=0;points=[];autosize=1;strokeColor=none;fillColor=none;" vertex="1" parent="1">
          <mxGeometry x="970" y="3528" width="190" height="30" as="geometry" />
        </mxCell>
        <mxCell id="eMn3P1zEDU3OZznFEJhk-191" value="" style="endArrow=open;endSize=12;dashed=1;html=1;rounded=0;" edge="1" parent="1">
          <mxGeometry width="160" relative="1" as="geometry">
            <mxPoint x="1225" y="3610" as="sourcePoint" />
            <mxPoint x="910.0833333333333" y="3610" as="targetPoint" />
          </mxGeometry>
        </mxCell>
        <mxCell id="eMn3P1zEDU3OZznFEJhk-193" value="Assigned Task" style="text;html=1;align=center;verticalAlign=middle;resizable=0;points=[];autosize=1;strokeColor=none;fillColor=none;" vertex="1" parent="1">
          <mxGeometry x="1030" y="3578" width="100" height="30" as="geometry" />
        </mxCell>
        <mxCell id="eMn3P1zEDU3OZznFEJhk-195" value="" style="endArrow=open;endSize=12;dashed=1;html=1;rounded=0;" edge="1" parent="1">
          <mxGeometry width="160" relative="1" as="geometry">
            <mxPoint x="899.9200000000001" y="3630" as="sourcePoint" />
            <mxPoint x="640" y="3630" as="targetPoint" />
          </mxGeometry>
        </mxCell>
        <mxCell id="eMn3P1zEDU3OZznFEJhk-196" value="Message(&quot;Task Has been Assigned&quot;)" style="text;html=1;align=center;verticalAlign=middle;resizable=0;points=[];autosize=1;strokeColor=none;fillColor=none;" vertex="1" parent="1">
          <mxGeometry x="670" y="3608" width="220" height="30" as="geometry" />
        </mxCell>
        <mxCell id="eMn3P1zEDU3OZznFEJhk-197" value="" style="endArrow=none;dashed=1;html=1;rounded=0;" edge="1" parent="1">
          <mxGeometry width="50" height="50" relative="1" as="geometry">
            <mxPoint x="860" y="3360" as="sourcePoint" />
            <mxPoint x="910" y="3310" as="targetPoint" />
          </mxGeometry>
        </mxCell>
        <mxCell id="eMn3P1zEDU3OZznFEJhk-198" value="" style="endArrow=none;dashed=1;html=1;rounded=0;" edge="1" parent="1">
          <mxGeometry width="50" height="50" relative="1" as="geometry">
            <mxPoint x="638.06" y="3880" as="sourcePoint" />
            <mxPoint x="635" y="3700" as="targetPoint" />
          </mxGeometry>
        </mxCell>
        <mxCell id="eMn3P1zEDU3OZznFEJhk-199" value="" style="endArrow=none;dashed=1;html=1;rounded=0;exitX=0.594;exitY=1;exitDx=0;exitDy=0;exitPerimeter=0;" edge="1" parent="1" source="eMn3P1zEDU3OZznFEJhk-162">
          <mxGeometry width="50" height="50" relative="1" as="geometry">
            <mxPoint x="905" y="3890" as="sourcePoint" />
            <mxPoint x="905" y="3700" as="targetPoint" />
            <Array as="points" />
          </mxGeometry>
        </mxCell>
        <mxCell id="eMn3P1zEDU3OZznFEJhk-200" value="" style="endArrow=none;dashed=1;html=1;rounded=0;" edge="1" parent="1">
          <mxGeometry width="50" height="50" relative="1" as="geometry">
            <mxPoint x="1230" y="3880" as="sourcePoint" />
            <mxPoint x="1230" y="3650" as="targetPoint" />
            <Array as="points" />
          </mxGeometry>
        </mxCell>
        <mxCell id="eMn3P1zEDU3OZznFEJhk-201" value="" style="endArrow=none;dashed=1;html=1;rounded=0;exitX=0.062;exitY=0.998;exitDx=0;exitDy=0;exitPerimeter=0;" edge="1" parent="1" source="eMn3P1zEDU3OZznFEJhk-162" target="eMn3P1zEDU3OZznFEJhk-168">
          <mxGeometry width="50" height="50" relative="1" as="geometry">
            <mxPoint x="305" y="3850" as="sourcePoint" />
            <mxPoint x="330" y="3790" as="targetPoint" />
          </mxGeometry>
>>>>>>> 305c2df77bcbca33457f7de318375c8cdc31b33d
        </mxCell>
      </root>
    </mxGraphModel>
  </diagram>
</mxfile>
